<?xml version="1.0" standalone="no"?><!DOCTYPE svg PUBLIC "-//W3C//DTD SVG 1.1//EN"
        "http://www.w3.org/Graphics/SVG/1.1/DTD/svg11.dtd">
<svg t="1747816796170" class="icon" fill="currentColor" viewBox="0 0 1024 1024" version="1.1"
     xmlns="http://www.w3.org/2000/svg" p-id="1155"
     xmlns:xlink="http://www.w3.org/1999/xlink" width="200" height="200">
    <path d="M432.22162 907.84349H185.306646c-29.76162 0-53.895404-24.133784-53.895404-53.895404v-246.914974c0-29.76162 24.133784-53.895404 53.895404-53.895404h246.914974c29.76162 0 53.895404 24.133784 53.895404 53.895404v246.914974c0 29.774295-24.121109 53.895404-53.895404 53.895404zM838.693354 907.84349h-246.914974c-29.76162 0-53.895404-24.133784-53.895404-53.895404v-246.914974c0-29.76162 24.133784-53.895404 53.895404-53.895404h246.914974c29.76162 0 53.895404 24.133784 53.895404 53.895404v246.914974c0 29.774295-24.133784 53.895404-53.895404 53.895404zM715.235867 502.804065c-97.95477 0-177.352891-79.398121-177.352891-177.352891 0-97.95477 79.398121-177.352891 177.352891-177.352891 97.95477 0 177.352891 79.398121 177.352891 177.352891 0 97.942095-79.410796 177.352891-177.352891 177.352891zM432.22162 502.804065H185.306646c-29.76162 0-53.895404-24.133784-53.895404-53.895404v-246.914974c0-29.76162 24.133784-53.895404 53.895404-53.895404h246.914974c29.76162 0 53.895404 24.133784 53.895404 53.895404v246.914974c0 29.76162-24.121109 53.895404-53.895404 53.895404z"
          fill="#4AB891" p-id="1156"></path>
</svg>