<?xml version="1.0" standalone="no"?><!DOCTYPE svg PUBLIC "-//W3C//DTD SVG 1.1//EN"
        "http://www.w3.org/Graphics/SVG/1.1/DTD/svg11.dtd">
<svg t="1748261279145" class="icon" fill="currentColor" viewBox="0 0 1024 1024" version="1.1"
     xmlns="http://www.w3.org/2000/svg" p-id="3027"
     xmlns:xlink="http://www.w3.org/1999/xlink" width="200" height="200">
    <path d="M384 192V96a32 32 0 0 1 32-32h192a32 32 0 0 1 32 32V192h224a32 32 0 1 1 0 64h-704a32 32 0 0 1 0-64H384z m64 0h128V128H448v64z m320 704V352a32 32 0 1 1 64 0v576a32 32 0 0 1-32 32h-576a32 32 0 0 1-32-32v-576a32 32 0 0 1 64 0V896h512z"
          fill="#383E47" p-id="3028"></path>
</svg>