<?xml version="1.0" standalone="no"?><!DOCTYPE svg PUBLIC "-//W3C//DTD SVG 1.1//EN"
        "http://www.w3.org/Graphics/SVG/1.1/DTD/svg11.dtd">
<svg t="1747881019816" class="icon" fill="currentColor" viewBox="0 0 1024 1024" version="1.1" xmlns="http://www.w3.org/2000/svg" p-id="3385"
     xmlns:xlink="http://www.w3.org/1999/xlink" width="200" height="200">
    <path d="M931.6 250.1H445.2c-15.4 0-27.9-12.5-27.9-27.9s12.5-27.9 27.9-27.9h486.4c15.4 0 27.9 12.5 27.9 27.9s-12.5 27.9-27.9 27.9zM160.8 317.8c-7.4 0-14.5-2.9-19.7-8.2l-68.7-68.7c-10.9-10.9-10.9-28.5 0-39.4 10.9-10.9 28.5-10.9 39.4 0l48.9 48.9 141.7-143.9c10.8-11 28.4-11.1 39.4-0.3 11 10.8 11.1 28.4 0.3 39.4L180.6 309.5c-5.2 5.3-12.3 8.3-19.7 8.3h-0.1zM931.6 543.7H445.2c-15.4 0-27.9-12.5-27.9-27.9 0-15.4 12.5-27.9 27.9-27.9h486.4c15.4 0 27.9 12.5 27.9 27.9 0 15.5-12.5 27.9-27.9 27.9zM160.8 611.4c-7.4 0-14.5-2.9-19.7-8.2l-68.7-68.7c-10.9-10.9-10.9-28.5 0-39.4 10.9-10.9 28.5-10.9 39.4 0l48.9 48.9 141.7-143.9c10.8-11 28.4-11.1 39.4-0.3 11 10.8 11.1 28.4 0.3 39.4L180.6 603.1c-5.2 5.3-12.3 8.3-19.7 8.3h-0.1z"
          fill="" p-id="3386"></path>
    <path d="M931.6 859.4H445.2c-15.4 0-27.9-12.5-27.9-27.9 0-15.4 12.5-27.9 27.9-27.9h486.4c15.4 0 27.9 12.5 27.9 27.9 0 15.4-12.5 27.9-27.9 27.9zM160.8 927c-7.4 0-14.5-2.9-19.7-8.2l-68.7-68.7c-10.9-10.9-10.9-28.5 0-39.4 10.9-10.9 28.5-10.9 39.4 0l48.9 48.9 141.7-143.9c10.8-11 28.4-11.1 39.4-0.3 11 10.8 11.1 28.4 0.3 39.4L180.6 918.7c-5.2 5.3-12.3 8.3-19.7 8.3h-0.1z"
          fill="" p-id="3387"></path>
</svg>